<svg xmlns="http://www.w3.org/2000/svg" viewBox="0 0 400 260" font-family="Segoe UI, Malgun Gothic, Arial, sans-serif">
<title>로그주기 다이폴 배열(LPDA) 안테나 (단순화한 일러스트)</title>
<path d="M40 104 H340" stroke="#2d3548" stroke-width="4"/>
<path d="M40 112 H340" stroke="#2d3548" stroke-width="4"/>
<g stroke="#1f5fd1" stroke-width="3" stroke-linecap="round">
<path d="M60 104 V20 M60 112 V196"/>
<path d="M92 104 V32 M92 112 V184"/>
<path d="M122 104 V43 M122 112 V173"/>
<path d="M149 104 V53 M149 112 V163"/>
<path d="M174 104 V62 M174 112 V154"/>
<path d="M197 104 V70 M197 112 V146"/>
<path d="M218 104 V77 M218 112 V139"/>
<path d="M237 104 V83 M237 112 V133"/>
<path d="M254 104 V88 M254 112 V128"/>
<path d="M270 104 V92 M270 112 V124"/>
<path d="M284 104 V95 M284 112 V121"/>
</g>
<rect x="336" y="96" width="30" height="24" rx="3" fill="#2d3548"/>
<path d="M366 108 H392" stroke="#d9731a" stroke-width="3"/>
<text x="378" y="94" font-size="11" fill="#d9731a" text-anchor="middle">N</text>
<path d="M150 116 V196" stroke="#2d3548" stroke-width="5" opacity="0.35"/>
<path d="M300 60 h80" stroke="#2d3548" stroke-width="1.5" stroke-dasharray="4 3"/>
<path d="M376 55 l8 5 l-8 5" fill="none" stroke="#2d3548" stroke-width="1.5"/>
<text x="384" y="52" font-size="12" fill="#2d3548" text-anchor="end">지향 방향</text>
<text x="60" y="222" font-size="12" fill="#2d3548">긴 소자: 낮은 주파수</text>
<text x="390" y="160" font-size="12" fill="#2d3548" text-anchor="end">짧은 소자:</text>
<text x="390" y="176" font-size="12" fill="#2d3548" text-anchor="end">높은 주파수</text>
<text x="270" y="222" font-size="14" font-weight="700" fill="#1f5fd1" text-anchor="middle">LPDA · 약 200 MHz – 수 GHz</text>
</svg>
