<svg xmlns="http://www.w3.org/2000/svg" viewBox="0 0 400 260" font-family="Segoe UI, Malgun Gothic, Arial, sans-serif">
<title>무선통신 시험기 (단순화한 정면 일러스트)</title>
<rect x="8" y="14" width="384" height="226" rx="10" fill="#eef2f8" stroke="#2d3548" stroke-width="2.5"/>
<rect x="24" y="240" width="40" height="10" rx="3" fill="#2d3548"/><rect x="336" y="240" width="40" height="10" rx="3" fill="#2d3548"/>
<rect x="24" y="30" width="236" height="168" rx="4" fill="#fff" stroke="#2d3548" stroke-width="2"/>
<rect x="24" y="30" width="236" height="22" rx="4" fill="#1f5fd1"/>
<text x="34" y="46" font-size="12.5" font-weight="700" fill="#fff">NR FR1 · Band n78 · SCS 30 kHz</text>
<g font-size="12" fill="#2d3548">
<text x="34" y="72">Connection</text><text x="250" y="72" text-anchor="end" font-weight="700" fill="#1d8a55">CONNECTED</text>
<text x="34" y="92">UE TX Power</text><text x="250" y="92" text-anchor="end" font-weight="700">+23.1 dBm</text>
<text x="34" y="112">TPC</text><text x="250" y="112" text-anchor="end" font-weight="700">All Up (Max)</text>
<text x="34" y="132">RB / Mod</text><text x="250" y="132" text-anchor="end" font-weight="700">1 RB / QPSK</text>
</g>
<path d="M34 142 H250" stroke="#d5dbe6"/>
<path d="M40 190 V176 H60 V160 H80 V168 H100 V150 H120 V156 H140 V164 H160 V172 H180 V158 H200 V166 H220 V176 H244 V190" fill="#dbe7fb" stroke="#1f5fd1" stroke-width="1.5"/>
<path d="M300 44 v30" stroke="#2d3548" stroke-width="2.5"/><path d="M292 74 h16" stroke="#2d3548" stroke-width="2.5"/>
<path d="M288 40 a16 16 0 0 0 0 16 M312 40 a16 16 0 0 1 0 16 M280 34 a26 26 0 0 0 0 28 M320 34 a26 26 0 0 1 0 28" stroke="#1f5fd1" stroke-width="2" fill="none"/>
<text x="356" y="50" font-size="11" fill="#2d3548" text-anchor="middle">기지국</text><text x="356" y="64" font-size="11" fill="#2d3548" text-anchor="middle">에뮬레이터</text>
<g fill="#fff" stroke="#2d3548" stroke-width="1.5">
<rect x="276" y="88" width="30" height="18" rx="3"/><rect x="312" y="88" width="30" height="18" rx="3"/><rect x="348" y="88" width="30" height="18" rx="3"/>
<rect x="276" y="112" width="30" height="18" rx="3"/><rect x="312" y="112" width="30" height="18" rx="3"/><rect x="348" y="112" width="30" height="18" rx="3"/>
</g>
<g fill="#fff" stroke="#2d3548" stroke-width="2.5"><circle cx="296" cy="170" r="12"/><circle cx="344" cy="170" r="12"/></g>
<circle cx="296" cy="170" r="4" fill="#2d3548"/><circle cx="344" cy="170" r="4" fill="#2d3548"/>
<g font-size="11" font-weight="700" fill="#2d3548" text-anchor="middle"><text x="296" y="198">RF COM</text><text x="344" y="198">RF OUT</text></g>
<g fill="#fff" stroke="#2d3548" stroke-width="1.5">
<rect x="26" y="208" width="34" height="16" rx="3"/><rect x="66" y="208" width="34" height="16" rx="3"/><rect x="106" y="208" width="34" height="16" rx="3"/><rect x="146" y="208" width="34" height="16" rx="3"/><rect x="186" y="208" width="34" height="16" rx="3"/>
</g>
<g font-size="14" font-weight="700" fill="#fff" text-anchor="middle">
<circle cx="24" cy="30" r="11" fill="#d9731a"/><text x="24" y="35">1</text>
<circle cx="266" cy="92" r="11" fill="#d9731a"/><text x="266" y="97">2</text>
<circle cx="374" cy="160" r="11" fill="#d9731a"/><text x="374" y="165">3</text>
</g>
</svg>
