<svg xmlns="http://www.w3.org/2000/svg" viewBox="0 0 400 260" font-family="Segoe UI, Malgun Gothic, Arial, sans-serif">
<title>신호 발생기 (단순화한 정면 일러스트)</title>
<rect x="8" y="40" width="384" height="180" rx="10" fill="#eef2f8" stroke="#2d3548" stroke-width="2.5"/>
<rect x="24" y="220" width="40" height="10" rx="3" fill="#2d3548"/><rect x="336" y="220" width="40" height="10" rx="3" fill="#2d3548"/>
<rect x="24" y="56" width="200" height="96" rx="4" fill="#fff" stroke="#2d3548" stroke-width="2"/>
<text x="36" y="76" font-size="13" fill="#2d3548">FREQ</text>
<text x="214" y="100" font-size="24" font-weight="700" fill="#1f5fd1" text-anchor="end">2.440 000 GHz</text>
<text x="36" y="122" font-size="13" fill="#2d3548">LEVEL</text>
<text x="214" y="143" font-size="22" font-weight="700" fill="#1f5fd1" text-anchor="end">-30.00 dBm</text>
<g fill="#fff" stroke="#2d3548" stroke-width="1.5">
<rect x="24" y="164" width="44" height="18" rx="3"/><rect x="76" y="164" width="44" height="18" rx="3"/><rect x="128" y="164" width="44" height="18" rx="3"/><rect x="180" y="164" width="44" height="18" rx="3"/>
</g>
<g font-size="10.5" fill="#2d3548" text-anchor="middle"><text x="46" y="177">MOD</text><text x="98" y="177">ARB</text><text x="150" y="177">SWEEP</text><text x="202" y="177">LIST</text></g>
<circle cx="276" cy="100" r="30" fill="#fff" stroke="#2d3548" stroke-width="2"/><circle cx="276" cy="100" r="20" fill="#eef2f8" stroke="#2d3548" stroke-width="1.5"/><circle cx="284" cy="88" r="3" fill="#2d3548"/>
<g fill="#fff" stroke="#2d3548" stroke-width="1.5">
<rect x="322" y="64" width="24" height="16" rx="3"/><rect x="352" y="64" width="24" height="16" rx="3"/>
<rect x="322" y="86" width="24" height="16" rx="3"/><rect x="352" y="86" width="24" height="16" rx="3"/>
<rect x="322" y="108" width="24" height="16" rx="3"/><rect x="352" y="108" width="24" height="16" rx="3"/>
</g>
<rect x="246" y="160" width="60" height="26" rx="4" fill="#1f5fd1"/><text x="276" y="178" font-size="13" font-weight="700" fill="#fff" text-anchor="middle">RF ON</text>
<circle cx="350" cy="180" r="14" fill="#fff" stroke="#2d3548" stroke-width="2.5"/><circle cx="350" cy="180" r="5" fill="#2d3548"/>
<text x="350" y="210" font-size="12" font-weight="700" fill="#2d3548" text-anchor="middle">RF OUT</text>
<path d="M364 180 h20" stroke="#d9731a" stroke-width="2.5"/><path d="M382 174 l9 6 l-9 6 z" fill="#d9731a"/>
<g font-size="14" font-weight="700" fill="#fff" text-anchor="middle">
<circle cx="24" cy="56" r="11" fill="#d9731a"/><text x="24" y="61">1</text>
<circle cx="306" cy="74" r="11" fill="#d9731a"/><text x="306" y="79">2</text>
<circle cx="246" cy="160" r="11" fill="#d9731a"/><text x="246" y="165">3</text>
<circle cx="326" cy="162" r="11" fill="#d9731a"/><text x="326" y="167">4</text>
</g>
</svg>
